<svg width="72" height="65" viewBox="0 0 72 65" fill="none" xmlns="http://www.w3.org/2000/svg">
<path fill-rule="evenodd" clip-rule="evenodd" d="M40.0409 29.5394C41.9781 30.6579 41.9781 33.4541 40.0409 34.5726L16.253 48.3066C15.3539 48.8257 14.8001 49.785 14.8001 50.8232V61.2017C14.8001 63.4386 17.2216 64.8367 19.1589 63.7182L69.6411 34.5726C71.5784 33.4541 71.5784 30.6579 69.6411 29.5394L19.1589 0.393753C17.2216 -0.72472 14.8001 0.673387 14.8001 2.91035V27.0229C14.8001 29.2598 12.3785 30.6579 10.4412 29.5395L4.35884 26.0279C2.42157 24.9094 0 26.3075 0 28.5445V38.9228C0 39.961 0.553864 40.9203 1.45296 41.4394L10.4412 46.6287C12.3785 47.7472 14.8001 46.3491 14.8001 44.1122V33.7337C14.8001 32.6955 15.3539 31.7362 16.253 31.2171L28.1469 24.3502C29.046 23.8311 30.1537 23.8311 31.0528 24.3502L40.0409 29.5394Z" fill="#091434"/>
</svg>
