<svg width="611" height="69" viewBox="0 0 611 69" fill="none" xmlns="http://www.w3.org/2000/svg">
<path fill-rule="evenodd" clip-rule="evenodd" d="M40.0409 31.6622C41.9781 32.7807 41.9781 35.5769 40.0409 36.6954L16.253 50.4294C15.3539 50.9485 14.8001 51.9078 14.8001 52.946V63.3245C14.8001 65.5614 17.2216 66.9595 19.1589 65.841L69.6411 36.6954C71.5784 35.5769 71.5784 32.7807 69.6411 31.6622L19.1589 2.51656C17.2216 1.39808 14.8001 2.79619 14.8001 5.03315V29.1457C14.8001 31.3826 12.3785 32.7807 10.4412 31.6623L4.35884 28.1507C2.42157 27.0322 0 28.4303 0 30.6673V41.0456C0 42.0838 0.553864 43.0431 1.45296 43.5622L10.4412 48.7515C12.3785 49.87 14.8001 48.4719 14.8001 46.235V35.8565C14.8001 34.8184 15.3539 33.859 16.253 33.3399L28.1469 26.473C29.046 25.9539 30.1537 25.9539 31.0528 26.473L40.0409 31.6622Z" fill="white"/>
<path d="M88.5319 37.3338H96.6319C96.6319 40.6638 99.3319 42.1938 109.592 42.1938C118.097 42.1938 120.662 41.2488 120.662 38.7738C120.662 36.1638 118.862 35.7138 108.647 35.2188C94.9219 34.5888 89.4769 32.4288 89.4769 25.3638C89.4769 18.4338 96.5419 16.2288 108.332 16.2288C120.212 16.2288 127.412 19.1988 127.412 26.9838H119.312C119.312 23.5188 115.847 22.6638 107.432 22.6638C99.4669 22.6638 97.5769 23.4288 97.5769 25.7688C97.5769 28.1988 99.4669 28.6488 108.647 29.1888C121.067 29.8638 128.762 30.5388 128.762 38.5038C128.762 46.9188 120.797 48.6288 109.142 48.6288C96.2269 48.6288 88.5319 46.4238 88.5319 37.3338ZM157.594 28.1088H145.039V35.7588C145.039 40.8888 146.029 42.1938 150.709 42.1938C153.139 42.1938 154.489 42.1938 157.594 41.7438V47.9538C155.029 48.4038 152.104 48.6288 148.549 48.6288C141.709 48.6288 137.299 46.0638 137.299 40.2138V28.1088H130.324V21.6738H137.299V16.1838L145.039 13.9788V21.6738H157.594V28.1088ZM182.03 21.2238C185.18 21.2238 187.385 21.6738 189.185 22.1238V28.5588C186.665 27.9288 184.64 27.6588 182.39 27.6588C178.07 27.6588 173.12 28.6488 168.44 32.2938V48.1788H160.745V21.6738H168.44V26.1738C172.4 22.6188 177.08 21.2238 182.03 21.2238ZM207.824 42.3738C213.134 42.3738 216.374 41.3838 218.309 38.6838H225.959C224.204 45.4338 217.634 48.6288 207.824 48.6288C197.744 48.6288 189.914 44.6688 189.914 34.9488C189.914 25.1838 197.519 21.2238 208.274 21.2238C218.354 21.2238 226.409 24.6888 226.409 36.7488H197.789C198.644 40.9788 202.694 42.3738 207.824 42.3738ZM208.229 27.0738C202.964 27.0738 199.274 28.1088 198.059 31.8438H218.174C216.869 28.1088 213.089 27.0738 208.229 27.0738ZM246.64 21.2238C257.71 21.2238 264.01 24.7788 264.1 34.8138V48.1788H256.36V44.8938C251.68 47.1888 246.505 48.6288 240.25 48.6288C232.825 48.6288 228.19 46.2438 228.19 40.2588C228.19 33.3738 235.75 31.2138 244.165 31.2138C248.71 31.2138 252.895 31.9338 256.36 33.1038C256.36 28.0638 249.88 27.6588 246.28 27.6588C242.815 27.6588 238.585 27.9738 233.14 29.5938L230.395 23.9688C235.795 22.2138 241.105 21.2238 246.64 21.2238ZM256.36 39.9438V37.8738C253.66 37.0188 250.015 36.2538 245.11 36.2538C239.35 36.2538 235.885 37.2438 235.885 39.9438C235.885 42.7338 238.45 42.9588 242.455 42.9588C246.64 42.9588 252.4 41.6538 256.36 39.9438ZM313.522 21.2238C319.462 21.2238 324.862 23.7438 324.952 33.3288L324.862 48.1788H317.167V36.4338C317.167 30.8088 316.222 27.8838 310.732 27.8838C306.682 27.8838 302.722 29.8188 300.382 31.9338C300.427 32.3838 300.427 32.8338 300.427 33.3288L300.337 48.1788H292.642V36.4338C292.642 30.8088 291.697 27.8838 286.207 27.8838C281.752 27.8838 277.432 30.1788 275.227 32.5638V48.1788H267.532V21.6738H275.227V25.9938C278.107 23.6988 282.427 21.2238 288.997 21.2238C293.002 21.2238 296.782 22.3938 298.807 26.0838C302.227 23.5188 306.952 21.2238 313.522 21.2238ZM328.572 12.1788H336.267V18.8838H328.572V12.1788ZM328.572 21.6738H336.267V48.1788H328.572V21.6738ZM363.259 21.2238C370.324 21.2238 376.939 23.7438 377.029 33.5088L376.939 48.1788H369.199V36.4338C369.199 30.8088 367.309 27.8838 360.964 27.8838C355.789 27.8838 350.209 30.5388 347.824 33.3288V48.1788H340.129V21.6738H347.824V26.3088C351.604 23.3388 356.824 21.2238 363.259 21.2238ZM408.913 21.6738H416.653V43.9488C416.653 54.7488 409.408 59.4288 399.373 59.4288C391.678 59.4288 385.333 57.9888 382.768 57.3138V51.1038C385.873 51.6888 391.813 52.9938 397.663 52.9938C405.628 52.9938 408.598 49.9338 408.913 43.1388C406.213 46.1088 401.758 47.8638 395.503 47.8638C386.413 47.8638 379.933 43.9038 379.933 34.5438C379.933 25.1838 386.413 21.2238 395.503 21.2238C401.803 21.2238 406.258 22.9788 408.913 25.9488V21.6738ZM398.293 41.4288C405.538 41.4288 408.913 39.4038 408.913 34.5438C408.913 29.6838 405.538 27.6588 398.293 27.6588C391.048 27.6588 387.628 29.6838 387.628 34.5438C387.628 39.4038 391.048 41.4288 398.293 41.4288ZM468.745 16.6788V48.1788H460.645V26.5788L447.55 48.1788H441.7L428.605 26.5788V48.1788H420.505V16.6788H431.44L444.625 38.9088L457.81 16.6788H468.745ZM489.821 42.3738C495.131 42.3738 498.371 41.3838 500.306 38.6838H507.956C506.201 45.4338 499.631 48.6288 489.821 48.6288C479.741 48.6288 471.911 44.6688 471.911 34.9488C471.911 25.1838 479.516 21.2238 490.271 21.2238C500.351 21.2238 508.406 24.6888 508.406 36.7488H479.786C480.641 40.9788 484.691 42.3738 489.821 42.3738ZM490.226 27.0738C484.961 27.0738 481.271 28.1088 480.056 31.8438H500.171C498.866 28.1088 495.086 27.0738 490.226 27.0738ZM557.33 21.2238C563.27 21.2238 568.67 23.7438 568.76 33.3288L568.67 48.1788H560.975V36.4338C560.975 30.8088 560.03 27.8838 554.54 27.8838C550.49 27.8838 546.53 29.8188 544.19 31.9338C544.235 32.3838 544.235 32.8338 544.235 33.3288L544.145 48.1788H536.45V36.4338C536.45 30.8088 535.505 27.8838 530.015 27.8838C525.56 27.8838 521.24 30.1788 519.035 32.5638V48.1788H511.34V21.6738H519.035V25.9938C521.915 23.6988 526.235 21.2238 532.805 21.2238C536.81 21.2238 540.59 22.3938 542.615 26.0838C546.035 23.5188 550.76 21.2238 557.33 21.2238ZM589.401 42.3738C594.711 42.3738 597.951 41.3838 599.886 38.6838H607.536C605.781 45.4338 599.211 48.6288 589.401 48.6288C579.321 48.6288 571.491 44.6688 571.491 34.9488C571.491 25.1838 579.096 21.2238 589.851 21.2238C599.931 21.2238 607.986 24.6888 607.986 36.7488H579.366C580.221 40.9788 584.271 42.3738 589.401 42.3738ZM589.806 27.0738C584.541 27.0738 580.851 28.1088 579.636 31.8438H599.751C598.446 28.1088 594.666 27.0738 589.806 27.0738Z" fill="white"/>
</svg>
