<svg width="151" height="137" viewBox="0 0 151 137" fill="none" xmlns="http://www.w3.org/2000/svg">
<path fill-rule="evenodd" clip-rule="evenodd" d="M84.9516 62.6712C89.0617 65.0442 89.0617 70.9767 84.9516 73.3497L34.4827 102.488C32.5752 103.589 31.4001 105.625 31.4001 107.827V129.847C31.4001 134.592 36.5378 137.559 40.648 135.186L147.752 73.3497C151.862 70.9767 151.862 65.0442 147.752 62.6712L40.648 0.83516C36.5378 -1.53782 31.4001 1.42843 31.4001 6.17441V57.3321C31.4001 62.078 26.2625 65.0443 22.1523 62.6713L9.24781 55.221C5.13766 52.8481 0 55.8143 0 60.5603V82.5792C0 84.7819 1.17509 86.8172 3.08262 87.9185L22.1523 98.9283C26.2625 101.301 31.4001 98.3351 31.4001 93.5891V71.57C31.4001 69.3673 32.5752 67.332 34.4827 66.2307L59.7171 51.6616C61.6246 50.5603 63.9748 50.5603 65.8823 51.6616L84.9516 62.6712Z" fill="#0000A3"/>
</svg>
