<svg width="72" height="65" viewBox="0 0 72 65" fill="none" xmlns="http://www.w3.org/2000/svg">
<path fill-rule="evenodd" clip-rule="evenodd" d="M40.0409 29.5393C41.9781 30.6578 41.9781 33.454 40.0409 34.5725L16.253 48.3065C15.3539 48.8256 14.8001 49.7849 14.8001 50.8231V61.2016C14.8001 63.4385 17.2216 64.8366 19.1589 63.7181L69.6411 34.5725C71.5784 33.454 71.5784 30.6578 69.6411 29.5393L19.1589 0.393646C17.2216 -0.724827 14.8001 0.67328 14.8001 2.91024V27.0228C14.8001 29.2597 12.3785 30.6578 10.4412 29.5394L4.35884 26.0278C2.42157 24.9093 0 26.3074 0 28.5444V38.9227C0 39.9609 0.553864 40.9202 1.45296 41.4393L10.4412 46.6286C12.3785 47.7471 14.8001 46.349 14.8001 44.112V33.7336C14.8001 32.6954 15.3539 31.7361 16.253 31.217L28.1469 24.3501C29.046 23.831 30.1537 23.831 31.0528 24.3501L40.0409 29.5393Z" fill="white"/>
</svg>
