<svg width="611" height="69" viewBox="0 0 611 69" fill="none" xmlns="http://www.w3.org/2000/svg">
<path fill-rule="evenodd" clip-rule="evenodd" d="M40.0409 31.6622C41.9781 32.7807 41.9781 35.5769 40.0409 36.6954L16.253 50.4294C15.3539 50.9485 14.8001 51.9078 14.8001 52.946V63.3245C14.8001 65.5614 17.2216 66.9595 19.1589 65.841L69.6411 36.6954C71.5784 35.5769 71.5784 32.7807 69.6411 31.6622L19.1589 2.51656C17.2216 1.39808 14.8001 2.79619 14.8001 5.03315V29.1457C14.8001 31.3826 12.3785 32.7807 10.4412 31.6623L4.35884 28.1507C2.42157 27.0322 0 28.4303 0 30.6673V41.0456C0 42.0838 0.553864 43.0431 1.45296 43.5622L10.4412 48.7515C12.3785 49.87 14.8001 48.4719 14.8001 46.235V35.8565C14.8001 34.8184 15.3539 33.859 16.253 33.3399L28.1469 26.473C29.046 25.9539 30.1537 25.9539 31.0528 26.473L40.0409 31.6622Z" fill="#091434"/>
<path d="M88.5319 37.3337H96.6319C96.6319 40.6637 99.3319 42.1937 109.592 42.1937C118.097 42.1937 120.662 41.2487 120.662 38.7737C120.662 36.1637 118.862 35.7137 108.647 35.2187C94.9219 34.5887 89.4769 32.4287 89.4769 25.3637C89.4769 18.4337 96.5419 16.2287 108.332 16.2287C120.212 16.2287 127.412 19.1987 127.412 26.9837H119.312C119.312 23.5187 115.847 22.6637 107.432 22.6637C99.4669 22.6637 97.5769 23.4287 97.5769 25.7687C97.5769 28.1987 99.4669 28.6487 108.647 29.1887C121.067 29.8637 128.762 30.5387 128.762 38.5037C128.762 46.9187 120.797 48.6287 109.142 48.6287C96.2269 48.6287 88.5319 46.4237 88.5319 37.3337ZM157.594 28.1087H145.039V35.7587C145.039 40.8887 146.029 42.1937 150.709 42.1937C153.139 42.1937 154.489 42.1937 157.594 41.7437V47.9537C155.029 48.4037 152.104 48.6287 148.549 48.6287C141.709 48.6287 137.299 46.0637 137.299 40.2137V28.1087H130.324V21.6737H137.299V16.1837L145.039 13.9787V21.6737H157.594V28.1087ZM182.03 21.2237C185.18 21.2237 187.385 21.6737 189.185 22.1237V28.5587C186.665 27.9287 184.64 27.6587 182.39 27.6587C178.07 27.6587 173.12 28.6487 168.44 32.2937V48.1787H160.745V21.6737H168.44V26.1737C172.4 22.6187 177.08 21.2237 182.03 21.2237ZM207.824 42.3737C213.134 42.3737 216.374 41.3837 218.309 38.6837H225.959C224.204 45.4337 217.634 48.6287 207.824 48.6287C197.744 48.6287 189.914 44.6687 189.914 34.9487C189.914 25.1837 197.519 21.2237 208.274 21.2237C218.354 21.2237 226.409 24.6887 226.409 36.7487H197.789C198.644 40.9787 202.694 42.3737 207.824 42.3737ZM208.229 27.0737C202.964 27.0737 199.274 28.1087 198.059 31.8437H218.174C216.869 28.1087 213.089 27.0737 208.229 27.0737ZM246.64 21.2237C257.71 21.2237 264.01 24.7787 264.1 34.8137V48.1787H256.36V44.8937C251.68 47.1887 246.505 48.6287 240.25 48.6287C232.825 48.6287 228.19 46.2437 228.19 40.2587C228.19 33.3737 235.75 31.2137 244.165 31.2137C248.71 31.2137 252.895 31.9337 256.36 33.1037C256.36 28.0637 249.88 27.6587 246.28 27.6587C242.815 27.6587 238.585 27.9737 233.14 29.5937L230.395 23.9687C235.795 22.2137 241.105 21.2237 246.64 21.2237ZM256.36 39.9437V37.8737C253.66 37.0187 250.015 36.2537 245.11 36.2537C239.35 36.2537 235.885 37.2437 235.885 39.9437C235.885 42.7337 238.45 42.9587 242.455 42.9587C246.64 42.9587 252.4 41.6537 256.36 39.9437ZM313.522 21.2237C319.462 21.2237 324.862 23.7437 324.952 33.3287L324.862 48.1787H317.167V36.4337C317.167 30.8087 316.222 27.8837 310.732 27.8837C306.682 27.8837 302.722 29.8187 300.382 31.9337C300.427 32.3837 300.427 32.8337 300.427 33.3287L300.337 48.1787H292.642V36.4337C292.642 30.8087 291.697 27.8837 286.207 27.8837C281.752 27.8837 277.432 30.1787 275.227 32.5637V48.1787H267.532V21.6737H275.227V25.9937C278.107 23.6987 282.427 21.2237 288.997 21.2237C293.002 21.2237 296.782 22.3937 298.807 26.0837C302.227 23.5187 306.952 21.2237 313.522 21.2237ZM328.572 12.1787H336.267V18.8837H328.572V12.1787ZM328.572 21.6737H336.267V48.1787H328.572V21.6737ZM363.259 21.2237C370.324 21.2237 376.939 23.7437 377.029 33.5087L376.939 48.1787H369.199V36.4337C369.199 30.8087 367.309 27.8837 360.964 27.8837C355.789 27.8837 350.209 30.5387 347.824 33.3287V48.1787H340.129V21.6737H347.824V26.3087C351.604 23.3387 356.824 21.2237 363.259 21.2237ZM408.913 21.6737H416.653V43.9487C416.653 54.7487 409.408 59.4287 399.373 59.4287C391.678 59.4287 385.333 57.9887 382.768 57.3137V51.1037C385.873 51.6887 391.813 52.9937 397.663 52.9937C405.628 52.9937 408.598 49.9337 408.913 43.1387C406.213 46.1087 401.758 47.8637 395.503 47.8637C386.413 47.8637 379.933 43.9037 379.933 34.5437C379.933 25.1837 386.413 21.2237 395.503 21.2237C401.803 21.2237 406.258 22.9787 408.913 25.9487V21.6737ZM398.293 41.4287C405.538 41.4287 408.913 39.4037 408.913 34.5437C408.913 29.6837 405.538 27.6587 398.293 27.6587C391.048 27.6587 387.628 29.6837 387.628 34.5437C387.628 39.4037 391.048 41.4287 398.293 41.4287ZM468.745 16.6787V48.1787H460.645V26.5787L447.55 48.1787H441.7L428.605 26.5787V48.1787H420.505V16.6787H431.44L444.625 38.9087L457.81 16.6787H468.745ZM489.821 42.3737C495.131 42.3737 498.371 41.3837 500.306 38.6837H507.956C506.201 45.4337 499.631 48.6287 489.821 48.6287C479.741 48.6287 471.911 44.6687 471.911 34.9487C471.911 25.1837 479.516 21.2237 490.271 21.2237C500.351 21.2237 508.406 24.6887 508.406 36.7487H479.786C480.641 40.9787 484.691 42.3737 489.821 42.3737ZM490.226 27.0737C484.961 27.0737 481.271 28.1087 480.056 31.8437H500.171C498.866 28.1087 495.086 27.0737 490.226 27.0737ZM557.33 21.2237C563.27 21.2237 568.67 23.7437 568.76 33.3287L568.67 48.1787H560.975V36.4337C560.975 30.8087 560.03 27.8837 554.54 27.8837C550.49 27.8837 546.53 29.8187 544.19 31.9337C544.235 32.3837 544.235 32.8337 544.235 33.3287L544.145 48.1787H536.45V36.4337C536.45 30.8087 535.505 27.8837 530.015 27.8837C525.56 27.8837 521.24 30.1787 519.035 32.5637V48.1787H511.34V21.6737H519.035V25.9937C521.915 23.6987 526.235 21.2237 532.805 21.2237C536.81 21.2237 540.59 22.3937 542.615 26.0837C546.035 23.5187 550.76 21.2237 557.33 21.2237ZM589.401 42.3737C594.711 42.3737 597.951 41.3837 599.886 38.6837H607.536C605.781 45.4337 599.211 48.6287 589.401 48.6287C579.321 48.6287 571.491 44.6687 571.491 34.9487C571.491 25.1837 579.096 21.2237 589.851 21.2237C599.931 21.2237 607.986 24.6887 607.986 36.7487H579.366C580.221 40.9787 584.271 42.3737 589.401 42.3737ZM589.806 27.0737C584.541 27.0737 580.851 28.1087 579.636 31.8437H599.751C598.446 28.1087 594.666 27.0737 589.806 27.0737Z" fill="#091434"/>
</svg>
