<svg width="1327" height="120" viewBox="0 0 1327 120" fill="none" xmlns="http://www.w3.org/2000/svg">
<path fill-rule="evenodd" clip-rule="evenodd" d="M68.1777 55.715C71.4763 57.6194 71.4763 62.3806 68.1777 64.285L27.674 87.6699C26.1432 88.5538 25.2001 90.1872 25.2001 91.9549V109.626C25.2001 113.435 29.3233 115.816 32.6219 113.911L118.578 64.285C121.877 62.3806 121.877 57.6194 118.578 55.715L32.6219 6.0886C29.3233 4.18417 25.2001 6.56473 25.2001 10.3736V51.4301C25.2001 55.2389 21.0769 57.6195 17.7783 55.7151L7.4218 49.7359C4.12321 47.8314 0 50.212 0 54.0209V71.6921C0 73.4598 0.943066 75.0933 2.47395 75.9771L17.7783 84.813C21.0769 86.7175 25.2001 84.3369 25.2001 80.528V62.8567C25.2001 61.0889 26.1432 59.4555 27.674 58.5717L47.9258 46.8793C49.4567 45.9954 51.3428 45.9954 52.8737 46.8793L68.1777 55.715Z" fill="#0000A3"/>
<path d="M168.556 65.9H186.556C186.556 73.3 192.556 76.7 215.356 76.7C234.256 76.7 239.956 74.6 239.956 69.1C239.956 63.3 235.956 62.3 213.256 61.2C182.756 59.8 170.656 55 170.656 39.3C170.656 23.9 186.356 19 212.556 19C238.956 19 254.956 25.6 254.956 42.9H236.956C236.956 35.2 229.256 33.3 210.556 33.3C192.856 33.3 188.656 35 188.656 40.2C188.656 45.6 192.856 46.6 213.256 47.8C240.856 49.3 257.956 50.8 257.956 68.5C257.956 87.2 240.256 91 214.356 91C185.656 91 168.556 86.1 168.556 65.9ZM322.027 45.4H294.127V62.4C294.127 73.8 296.327 76.7 306.727 76.7C312.127 76.7 315.127 76.7 322.027 75.7V89.5C316.327 90.5 309.827 91 301.927 91C286.727 91 276.927 85.3 276.927 72.3V45.4H261.427V31.1H276.927V18.9L294.127 14V31.1H322.027V45.4ZM376.329 30.1C383.329 30.1 388.229 31.1 392.229 32.1V46.4C386.629 45 382.129 44.4 377.129 44.4C367.529 44.4 356.529 46.6 346.129 54.7V90H329.029V31.1H346.129V41.1C354.929 33.2 365.329 30.1 376.329 30.1ZM433.649 77.1C445.449 77.1 452.649 74.9 456.949 68.9H473.949C470.049 83.9 455.449 91 433.649 91C411.249 91 393.849 82.2 393.849 60.6C393.849 38.9 410.749 30.1 434.649 30.1C457.049 30.1 474.949 37.8 474.949 64.6H411.349C413.249 74 422.249 77.1 433.649 77.1ZM434.549 43.1C422.849 43.1 414.649 45.4 411.949 53.7H456.649C453.749 45.4 445.349 43.1 434.549 43.1ZM519.907 30.1C544.507 30.1 558.507 38 558.707 60.3V90H541.507V82.7C531.107 87.8 519.607 91 505.707 91C489.207 91 478.907 85.7 478.907 72.4C478.907 57.1 495.707 52.3 514.407 52.3C524.507 52.3 533.807 53.9 541.507 56.5C541.507 45.3 527.107 44.4 519.107 44.4C511.407 44.4 502.007 45.1 489.907 48.7L483.807 36.2C495.807 32.3 507.607 30.1 519.907 30.1ZM541.507 71.7V67.1C535.507 65.2 527.407 63.5 516.507 63.5C503.707 63.5 496.007 65.7 496.007 71.7C496.007 77.9 501.707 78.4 510.607 78.4C519.907 78.4 532.707 75.5 541.507 71.7ZM668.533 30.1C681.733 30.1 693.733 35.7 693.933 57L693.733 90H676.633V63.9C676.633 51.4 674.533 44.9 662.333 44.9C653.333 44.9 644.533 49.2 639.333 53.9C639.433 54.9 639.433 55.9 639.433 57L639.233 90H622.133V63.9C622.133 51.4 620.033 44.9 607.833 44.9C597.933 44.9 588.333 50 583.433 55.3V90H566.333V31.1H583.433V40.7C589.833 35.6 599.433 30.1 614.033 30.1C622.933 30.1 631.333 32.7 635.833 40.9C643.433 35.2 653.933 30.1 668.533 30.1ZM701.978 10H719.078V24.9H701.978V10ZM701.978 31.1H719.078V90H701.978V31.1ZM779.061 30.1C794.761 30.1 809.461 35.7 809.661 57.4L809.461 90H792.261V63.9C792.261 51.4 788.061 44.9 773.961 44.9C762.461 44.9 750.061 50.8 744.761 57V90H727.661V31.1H744.761V41.4C753.161 34.8 764.761 30.1 779.061 30.1ZM880.514 31.1H897.714V80.6C897.714 104.6 881.614 115 859.314 115C842.214 115 828.114 111.8 822.414 110.3V96.5C829.314 97.8 842.514 100.7 855.514 100.7C873.214 100.7 879.814 93.9 880.514 78.8C874.514 85.4 864.614 89.3 850.714 89.3C830.514 89.3 816.114 80.5 816.114 59.7C816.114 38.9 830.514 30.1 850.714 30.1C864.714 30.1 874.614 34 880.514 40.6V31.1ZM856.914 75C873.014 75 880.514 70.5 880.514 59.7C880.514 48.9 873.014 44.4 856.914 44.4C840.814 44.4 833.214 48.9 833.214 59.7C833.214 70.5 840.814 75 856.914 75ZM1013.47 20V90H995.475V42L966.375 90H953.375L924.275 42V90H906.275V20H930.575L959.875 69.4L989.175 20H1013.47ZM1060.31 77.1C1072.11 77.1 1079.31 74.9 1083.61 68.9H1100.61C1096.71 83.9 1082.11 91 1060.31 91C1037.91 91 1020.51 82.2 1020.51 60.6C1020.51 38.9 1037.41 30.1 1061.31 30.1C1083.71 30.1 1101.61 37.8 1101.61 64.6H1038.01C1039.91 74 1048.91 77.1 1060.31 77.1ZM1061.21 43.1C1049.51 43.1 1041.31 45.4 1038.61 53.7H1083.31C1080.41 45.4 1072.01 43.1 1061.21 43.1ZM1210.33 30.1C1223.53 30.1 1235.53 35.7 1235.73 57L1235.53 90H1218.43V63.9C1218.43 51.4 1216.33 44.9 1204.13 44.9C1195.13 44.9 1186.33 49.2 1181.13 53.9C1181.23 54.9 1181.23 55.9 1181.23 57L1181.03 90H1163.93V63.9C1163.93 51.4 1161.83 44.9 1149.63 44.9C1139.73 44.9 1130.13 50 1125.23 55.3V90H1108.13V31.1H1125.23V40.7C1131.63 35.6 1141.23 30.1 1155.83 30.1C1164.73 30.1 1173.13 32.7 1177.63 40.9C1185.23 35.2 1195.73 30.1 1210.33 30.1ZM1281.6 77.1C1293.4 77.1 1300.6 74.9 1304.9 68.9H1321.9C1318 83.9 1303.4 91 1281.6 91C1259.2 91 1241.8 82.2 1241.8 60.6C1241.8 38.9 1258.7 30.1 1282.6 30.1C1305 30.1 1322.9 37.8 1322.9 64.6H1259.3C1261.2 74 1270.2 77.1 1281.6 77.1ZM1282.5 43.1C1270.8 43.1 1262.6 45.4 1259.9 53.7H1304.6C1301.7 45.4 1293.3 43.1 1282.5 43.1Z" fill="#0C1319"/>
</svg>
